<svg xmlns="http://www.w3.org/2000/svg" version="1.1" xmlns:xlink="http://www.w3.org/1999/xlink" width="1000" height="1000"><g clip-path="url(#SvgjsClipPath1383)"><rect width="1000" height="1000" fill="#ffffff"></rect><g transform="matrix(10,0,0,10,0,0)"><svg xmlns="http://www.w3.org/2000/svg" version="1.1" xmlns:xlink="http://www.w3.org/1999/xlink" width="100" height="100"><svg width="100" height="100" viewBox="0 0 100 100" fill="none" xmlns="http://www.w3.org/2000/svg">
  <!-- Background circle -->
  <circle cx="50" cy="50" r="48" fill="#f77174" opacity="0.1"></circle>
  
  <!-- Main geometric angular design - left triangle -->
  <path d="M25 35 L40 50 L25 65 Z" fill="#f77174" opacity="0.9"></path>
  
  <!-- Center angular shape -->
  <path d="M40 30 L60 30 L70 50 L60 70 L40 70 L30 50 Z" fill="#eba977"></path>
  
  <!-- Right triangle -->
  <path d="M75 35 L75 65 L60 50 Z" fill="#38385e" opacity="0.9"></path>
  
  <!-- Inner accent - small diamond -->
  <path d="M50 40 L55 50 L50 60 L45 50 Z" fill="white"></path>
  
  <!-- Top accent line -->
  <path d="M45 25 L55 25 L50 35 Z" fill="#f77174"></path>
  
  <!-- Bottom accent line -->
  <path d="M45 75 L55 75 L50 65 Z" fill="#f77174"></path>
</svg></svg></g></g><defs><clipPath id="SvgjsClipPath1383"><rect width="1000" height="1000" x="0" y="0" rx="500" ry="500"></rect></clipPath></defs></svg>