<svg width="1600" height="1200" viewBox="0 0 1600 1200" fill="none" xmlns="http://www.w3.org/2000/svg">
  <defs>
    <linearGradient id="bgGradient" x1="0" y1="0" x2="1600" y2="1200" gradientUnits="userSpaceOnUse">
      <stop offset="0" stop-color="#c43e41" stop-opacity="0.08" />
      <stop offset="0.5" stop-color="#eba977" stop-opacity="0.06" />
      <stop offset="1" stop-color="#38385e" stop-opacity="0.08" />
    </linearGradient>
    <linearGradient id="accentWave" x1="0" y1="0" x2="1" y2="1">
      <stop offset="0" stop-color="#eba977" />
      <stop offset="1" stop-color="#c43e41" />
    </linearGradient>
    <filter id="cardShadow" x="0" y="0" width="1600" height="1200" filterUnits="userSpaceOnUse" color-interpolation-filters="sRGB">
      <feDropShadow dx="0" dy="18" stdDeviation="24" flood-color="#20203e" flood-opacity="0.18" />
    </filter>
  </defs>

  <rect width="1600" height="1200" fill="#fafafa" />
  <rect width="1600" height="1200" fill="url(#bgGradient)" />

  <g filter="url(#cardShadow)">
    <rect x="80" y="80" width="1440" height="1040" rx="48" fill="#ffffff" stroke="#e2e8f0" stroke-width="2" />
  </g>

  <rect x="220" y="200" width="1160" height="840" rx="40" fill="#ffffff" stroke="#e2e8f0" stroke-width="2" />

  <circle cx="1180" cy="320" r="190" fill="#c43e41" fill-opacity="0.14" />
  <circle cx="1240" cy="270" r="130" fill="#eba977" fill-opacity="0.2" />
  <circle cx="1120" cy="230" r="80" fill="#38385e" fill-opacity="0.16" />

  <path d="M240 760 C 420 660, 760 660, 920 760 C 1080 860, 1320 900, 1380 880 L 1380 1020 L 240 1020 Z" fill="url(#accentWave)" opacity="0.16" />

  <rect x="260" y="250" width="760" height="720" rx="28" fill="#ffffff" stroke="#e2e8f0" stroke-width="2" />
  <rect x="1060" y="250" width="300" height="720" rx="28" fill="#ffffff" stroke="#e2e8f0" stroke-width="2" />

  <rect x="280" y="270" width="720" height="56" rx="16" fill="#f1f5f9" />
  <rect x="300" y="286" width="220" height="12" rx="6" fill="#e2e8f0" />
  <rect x="300" y="304" width="140" height="10" rx="5" fill="#e2e8f0" />
  <circle cx="940" cy="298" r="6" fill="#e2e8f0" />
  <circle cx="965" cy="298" r="6" fill="#e2e8f0" />
  <circle cx="990" cy="298" r="6" fill="#e2e8f0" />

  <rect x="280" y="340" width="720" height="86" rx="18" fill="#f8fafc" />
  <circle cx="320" cy="383" r="18" fill="#c43e41" fill-opacity="0.2" />
  <circle cx="365" cy="383" r="20" fill="#e2e8f0" />
  <rect x="400" y="368" width="220" height="12" rx="6" fill="#e2e8f0" />
  <rect x="400" y="388" width="160" height="10" rx="5" fill="#f1f5f9" />
  <rect x="650" y="374" width="300" height="20" rx="10" fill="#e2e8f0" />
  <rect x="650" y="374" width="240" height="20" rx="10" fill="#c43e41" fill-opacity="0.35" />

  <rect x="280" y="440" width="720" height="86" rx="18" fill="#f8fafc" />
  <circle cx="320" cy="483" r="18" fill="#eba977" fill-opacity="0.22" />
  <circle cx="365" cy="483" r="20" fill="#e2e8f0" />
  <rect x="400" y="468" width="200" height="12" rx="6" fill="#e2e8f0" />
  <rect x="400" y="488" width="150" height="10" rx="5" fill="#f1f5f9" />
  <rect x="650" y="474" width="300" height="20" rx="10" fill="#e2e8f0" />
  <rect x="650" y="474" width="210" height="20" rx="10" fill="#eba977" fill-opacity="0.4" />

  <rect x="280" y="540" width="720" height="86" rx="18" fill="#f8fafc" />
  <circle cx="320" cy="583" r="18" fill="#38385e" fill-opacity="0.18" />
  <circle cx="365" cy="583" r="20" fill="#e2e8f0" />
  <rect x="400" y="568" width="180" height="12" rx="6" fill="#e2e8f0" />
  <rect x="400" y="588" width="130" height="10" rx="5" fill="#f1f5f9" />
  <rect x="650" y="574" width="300" height="20" rx="10" fill="#e2e8f0" />
  <rect x="650" y="574" width="180" height="20" rx="10" fill="#c43e41" fill-opacity="0.25" />

  <rect x="280" y="640" width="720" height="86" rx="18" fill="#f8fafc" />
  <circle cx="320" cy="683" r="18" fill="#e2e8f0" />
  <circle cx="365" cy="683" r="20" fill="#e2e8f0" />
  <rect x="400" y="668" width="170" height="12" rx="6" fill="#e2e8f0" />
  <rect x="400" y="688" width="120" height="10" rx="5" fill="#f1f5f9" />
  <rect x="650" y="674" width="300" height="20" rx="10" fill="#e2e8f0" />
  <rect x="650" y="674" width="150" height="20" rx="10" fill="#c43e41" fill-opacity="0.2" />

  <rect x="280" y="740" width="720" height="86" rx="18" fill="#f8fafc" />
  <circle cx="320" cy="783" r="18" fill="#e2e8f0" />
  <circle cx="365" cy="783" r="20" fill="#e2e8f0" />
  <rect x="400" y="768" width="160" height="12" rx="6" fill="#e2e8f0" />
  <rect x="400" y="788" width="110" height="10" rx="5" fill="#f1f5f9" />
  <rect x="650" y="774" width="300" height="20" rx="10" fill="#e2e8f0" />
  <rect x="650" y="774" width="120" height="20" rx="10" fill="#c43e41" fill-opacity="0.18" />

  <rect x="1080" y="270" width="260" height="56" rx="16" fill="#f1f5f9" />
  <rect x="1100" y="288" width="140" height="12" rx="6" fill="#e2e8f0" />
  <rect x="1100" y="308" width="90" height="10" rx="5" fill="#e2e8f0" />

  <rect x="1100" y="350" width="70" height="80" rx="12" fill="#f8fafc" />
  <rect x="1185" y="330" width="70" height="100" rx="12" fill="#f8fafc" />
  <rect x="1270" y="360" width="70" height="70" rx="12" fill="#f8fafc" />

  <rect x="1100" y="480" width="240" height="2" fill="#e2e8f0" />
  <rect x="1100" y="540" width="240" height="2" fill="#e2e8f0" />
  <rect x="1100" y="600" width="240" height="2" fill="#e2e8f0" />
  <rect x="1100" y="900" width="240" height="2" fill="#e2e8f0" />

  <rect x="1110" y="760" width="26" height="140" rx="10" fill="#c43e41" fill-opacity="0.25" />
  <rect x="1150" y="720" width="26" height="180" rx="10" fill="#c43e41" fill-opacity="0.35" />
  <rect x="1190" y="800" width="26" height="100" rx="10" fill="#c43e41" fill-opacity="0.22" />
  <rect x="1230" y="700" width="26" height="200" rx="10" fill="#c43e41" fill-opacity="0.4" />
  <rect x="1270" y="740" width="26" height="160" rx="10" fill="#c43e41" fill-opacity="0.3" />
  <rect x="1310" y="780" width="26" height="120" rx="10" fill="#c43e41" fill-opacity="0.26" />
</svg>
